<?xml version="1.0" encoding="UTF-8"?>
<svg id="_Слой_2" data-name="Слой 2" xmlns="http://www.w3.org/2000/svg" viewBox="0 0 2896.07 1487.97">
  <defs>
    <style>
      .cls-1 {
        fill: #17152b;
      }

      .cls-2 {
        fill: #060633;
      }

      .cls-3 {
        fill: #ea6868;
      }

      .cls-4 {
        fill: #fa7267;
      }

      .cls-5 {
        fill: #fb9391;
      }

      .cls-6 {
        fill: #bdd1f9;
      }

      .cls-7 {
        fill: #ff817b;
      }

      .cls-8 {
        fill: #fff;
      }

      .cls-9 {
        fill: #a6a2f4;
      }

      .cls-10 {
        fill: #7979f2;
      }

      .cls-11 {
        fill: #170c58;
      }

      .cls-12 {
        fill: #ea5f59;
      }

      .cls-13 {
        fill: #8e8eef;
      }

      .cls-14 {
        fill: #dddaf5;
      }

      .cls-15 {
        fill: #91b5f8;
      }

      .cls-16 {
        fill: #0b0755;
      }
    </style>
  </defs>
  <g id="_лой_1" data-name="—лой_1">
    <g>
      <path class="cls-14" d="M2441.57,1402.01l315.6,11.94c158.07.66,157.46-620.9-148.77-822.7-42.19-27.81-96.51-26.34-143.37-42.78-241.08-84.58-212.32-290.21-370-433.15-333.37-302.21-699.53,79.36-1067.62,129.85-229.83,31.52-534.99-16.01-751.32,215.25C-21.48,778.52,68.28,1250.98,172.54,1399.62l2269.03,2.39Z"/>
      <g>
        <rect class="cls-9" x="1725.65" y="588.71" width="144.61" height="770.99"/>
        <rect class="cls-9" x="1998.6" y="718.62" width="211.75" height="641.08"/>
        <path class="cls-9" d="M2576.05,811.82v511.55c-8.16,15.52-19.66,27.28-32.66,36.32h-106.89v-547.87h139.54Z"/>
        <rect class="cls-9" x="1850.22" y="841.24" width="241.71" height="518.46"/>
        <rect class="cls-9" x="1594.59" y="797.77" width="211.75" height="561.93"/>
        <rect class="cls-9" x="1201.11" y="704.53" width="248.53" height="655.17"/>
        <polygon class="cls-9" points="1629.1 588.71 1417.36 652.08 1417.36 1359.7 1629.1 1359.7 1629.1 588.71"/>
        <g>
          <rect class="cls-9" x="2205.96" y="669.54" width="295.77" height="690.16"/>
          <rect class="cls-9" x="2254.67" y="621.35" width="198.36" height="112.35"/>
        </g>
        <rect class="cls-8" x="2427.2" y="876.1" width="29.39" height="48.11"/>
        <rect class="cls-8" x="1532.17" y="656.32" width="29.39" height="48.11"/>
        <rect class="cls-8" x="1340.39" y="744.58" width="29.39" height="48.11"/>
        <rect class="cls-8" x="2359.6" y="785" width="29.39" height="48.11"/>
        <rect class="cls-8" x="1701.18" y="848.93" width="29.39" height="48.11"/>
      </g>
      <g>
        <rect class="cls-9" x="848.39" y="588.71" width="144.61" height="770.99"/>
        <rect class="cls-9" x="1121.34" y="767.93" width="211.75" height="591.77"/>
        <rect class="cls-9" x="972.95" y="841.24" width="241.71" height="518.46"/>
        <rect class="cls-9" x="717.33" y="797.77" width="211.75" height="561.93"/>
        <rect class="cls-9" x="323.85" y="704.53" width="248.53" height="655.17"/>
        <polygon class="cls-9" points="751.84 588.71 540.09 652.08 540.09 1359.7 751.84 1359.7 751.84 588.71"/>
        <g>
          <rect class="cls-9" x="1328.7" y="669.54" width="295.77" height="690.16"/>
          <rect class="cls-9" x="1377.4" y="621.35" width="198.36" height="112.35"/>
          <rect class="cls-9" x="1424.5" y="542.94" width="104.16" height="99.77"/>
          <rect class="cls-9" x="1467.43" y="450.29" width="18.31" height="111.39"/>
        </g>
        <rect class="cls-8" x="1549.93" y="876.1" width="29.39" height="48.11"/>
        <rect class="cls-8" x="654.91" y="656.32" width="29.39" height="48.11"/>
        <rect class="cls-8" x="463.13" y="744.58" width="29.39" height="48.11"/>
        <rect class="cls-8" x="1461.89" y="561.68" width="29.39" height="48.11"/>
        <rect class="cls-8" x="1482.34" y="785" width="29.39" height="48.11"/>
        <rect class="cls-8" x="823.91" y="848.93" width="29.39" height="48.11"/>
      </g>
      <path class="cls-6" d="M2896.07,1402.58c.21-50.38-647.93-93.91-1447.66-97.23C648.69,1302.02.21,1340.16,0,1390.54c-.21,50.38,647.93,93.91,1447.66,97.23,799.73,3.32,1448.21-34.82,1448.42-85.19Z"/>
      <path class="cls-13" d="M2424.08,741.1c-36.41,5.39-69.21,24.21-72.95,65.16-3.54,38.76,26.04,77.13,11.41,115.53-15.02,39.41-57.87,52.89-42.23,101.64,5.57,17.36,14.55,34.28,14.09,52.51-.95,38.2-38.22,61.52-56.43,91.48-23.5,38.67-14.8,91.94,16.49,123.72,59.5,60.42,160.4,38.72,235.45,32.99,43.6-3.32,82.94-25.66,93.85-70.96,12.66-52.6-20.49-77.94-41.2-119.54-20.16-40.48,4.66-88.15,5.26-133.37.67-50.55-40.14-78.3-47.63-124.75-5.42-33.59,13.49-68.19-5.32-99.92-9.96-16.8-28.4-27.18-47.41-31.68-18.84-4.47-41.75-6.01-63.38-2.81h0Z"/>
      <path class="cls-10" d="M2659.08,850.93c-31.13,4.61-59.18,20.7-62.37,55.71-3.02,33.14,22.26,65.95,9.76,98.78-12.84,33.7-49.48,45.22-36.1,86.91,4.76,14.84,12.44,29.31,12.05,44.9-.81,32.66-32.68,52.6-48.25,78.22-20.1,33.06-12.66,78.61,14.1,105.78,50.87,51.66,137.15,33.1,201.32,28.21,37.28-2.84,70.92-21.94,80.24-60.68,10.83-44.97-17.52-66.64-35.23-102.2-17.24-34.61,3.98-75.37,4.5-114.03.57-43.22-34.32-66.95-40.73-106.67-4.63-28.72,11.53-58.31-4.55-85.44-8.52-14.36-24.29-23.24-40.54-27.09-16.11-3.82-35.69-5.14-54.19-2.4Z"/>
      <g>
        <path class="cls-10" d="M1129.9,935.15c-19.61,2.78-37.27,12.47-39.28,33.57-1.9,19.97,14.02,39.74,6.15,59.52-8.09,20.3-31.16,27.25-22.74,52.37,3,8.95,7.83,17.66,7.59,27.05-.51,19.68-20.58,31.7-30.39,47.13-12.66,19.92-7.97,47.37,8.88,63.74,32.04,31.13,86.37,19.95,126.79,17,23.48-1.71,44.66-13.22,50.54-36.56,6.82-27.1-11.03-40.16-22.19-61.59-10.86-20.85,2.51-45.42,2.83-68.71.36-26.05-21.61-40.34-25.65-64.28-2.92-17.31,7.26-35.13-2.87-51.48-5.36-8.66-15.29-14-25.53-16.32-10.14-2.3-22.48-3.1-34.13-1.45h0Z"/>
        <path class="cls-1" d="M1141.48,1333.04c.76,0,1.38-.6,1.38-1.33v-343.3c0-.73-.62-1.32-1.38-1.32s-1.38.59-1.38,1.32v343.3c0,.73.62,1.33,1.38,1.33h0Z"/>
        <path class="cls-1" d="M1141.48,1143.67c.53,0,1.03-.29,1.26-.77l39.37-82.44c.32-.66.01-1.45-.68-1.75-.7-.31-1.52-.01-1.83.65l-39.37,82.44c-.32.67-.01,1.45.68,1.76.19.08.38.12.57.12h0Z"/>
        <path class="cls-1" d="M1141.48,1203.21c.27,0,.55-.08.79-.24.63-.42.78-1.25.35-1.85l-38.77-53.31c-.44-.6-1.3-.75-1.93-.33-.63.42-.78,1.24-.35,1.84l38.77,53.31c.27.37.7.57,1.14.57h0Z"/>
      </g>
      <g>
        <path class="cls-11" d="M838.61,1354.39c-1.27,0-2.31-1.04-2.31-2.31v-597.41c0-1.27,1.03-2.31,2.31-2.31s2.31,1.03,2.31,2.31v597.41c0,1.27-1.03,2.31-2.31,2.31h0Z"/>
        <path class="cls-13" d="M857.9,661.98c32.64,4.83,62.06,21.71,65.4,58.42,3.17,34.76-23.35,69.16-10.23,103.59,13.46,35.34,51.89,47.42,37.86,91.13-5,15.57-13.04,30.74-12.64,47.08.85,34.25,34.27,55.16,50.6,82.02,21.07,34.67,13.27,82.44-14.78,110.93-53.34,54.17-143.82,34.72-211.11,29.58-39.09-2.98-74.37-23.01-84.14-63.62-11.35-47.16,18.37-69.88,36.94-107.18,18.08-36.29-4.18-79.03-4.71-119.58-.6-45.33,35.99-70.21,42.71-111.85,4.86-30.12-12.09-61.14,4.77-89.59,8.93-15.06,25.47-24.37,42.51-28.41,16.89-4.01,37.43-5.39,56.83-2.52h0Z"/>
      </g>
      <g>
        <path class="cls-1" d="M413.43,1344.07c-1.82,0-3.3-1.35-3.3-3.01v-780.73c0-1.66,1.48-3.01,3.3-3.01s3.3,1.35,3.3,3.01v780.73c0,1.66-1.48,3.01-3.3,3.01Z"/>
        <path class="cls-10" d="M441.07,427.78c46.78,6.92,88.93,31.11,93.73,83.72,4.54,49.81-33.46,99.11-14.66,148.44,19.29,50.64,74.36,67.96,54.26,130.6-7.16,22.31-18.69,44.05-18.11,67.47,1.22,49.08,49.11,79.04,72.51,117.54,30.2,49.68,19.02,118.13-21.19,158.96-76.45,77.63-206.1,49.75-302.53,42.39-56.02-4.27-106.57-32.98-120.58-91.19-16.27-67.58,26.32-100.14,52.94-153.58,25.9-52.01-5.99-113.26-6.75-171.36-.86-64.95,51.57-100.61,61.2-160.29,6.96-43.16-17.33-87.62,6.84-128.39,12.8-21.59,36.5-34.92,60.91-40.71,24.2-5.74,53.64-7.72,81.44-3.61Z"/>
      </g>
      <path class="cls-15" d="M269.83,1355.9s114.02,6.34,137.74-1.96c23.72-8.3,48.25-50.62,30.09-71-14.87-16.68-33.95-1.88-44.58-16.04-10.62-14.17,25.46-62.83-52.09-54.74-77.54,8.09-36.21,67.92-56.3,60.68-39.3-14.17-93.48,50.85-14.87,83.06Z"/>
      <g>
        <path class="cls-5" d="M524.96,596.14s-3.04,101.01,5.63,139.38c0,0,23.3,8.78,26.56,6.18,3.25-2.6-6.83-7.8-8.13-15.93-1.3-8.13,6.18-117.05,6.18-117.05l-30.24-12.57Z"/>
        <path class="cls-5" d="M572.09,599.77s13.56,100.14,28.4,136.57c0,0,24.43,4.84,27.21,1.74,2.78-3.1-8.01-6.58-10.63-14.38-2.62-7.81-13.09-116.48-13.09-116.48l-31.89-7.45Z"/>
        <polygon class="cls-11" points="519.61 563.64 512.64 639.6 563.45 644.03 565.57 614.91 571.39 644.03 616.67 644.03 605.08 552.91 519.61 563.64"/>
        <path class="cls-5" d="M516.13,515.44s-17.62,21.12-23.8,48.2l-10.27-.65s5.38-41.59,18.8-60.67c0,0,9.06,10.61,15.27,13.12Z"/>
        <path class="cls-5" d="M491.58,561.27s3.6,8.52,4.21,11.88c.62,3.37,3.71,6.17,2,7.16-1.72.99-5.37-4.49-5.37-4.49,0,0-2,6.67-2.3,8.81-.3,2.14-1.82,5.84-3.41,5.74-1.59-.1.59-10.29.59-10.29,0,0-2.68,8.4-4.16,8.62-1.48.22.35-10.97.35-10.97,0,0-2.42,9.1-3.23,9.65-.81.55-1.55-.47-1.47-3.9.07-3.43,1.03-6.91,1.03-6.91,0,0-2.18,6.27-2.7,6.93-.52.66-1.73,1.19-1.08-3.88.65-5.07,3.83-15.8,7.6-20.51l7.94,2.16Z"/>
        <path class="cls-5" d="M597.8,502.32s22.25,32.12,28.43,59.21l10.27-.65s-5.93-47.02-19.35-66.1c0,0-13.14,5.03-19.35,7.54Z"/>
        <path class="cls-5" d="M626.98,559.15s-3.6,8.52-4.21,11.88c-.62,3.37-3.71,6.17-2,7.16,1.72.99,5.37-4.49,5.37-4.49,0,0,2,6.67,2.31,8.81.3,2.14,1.82,5.83,3.41,5.74,1.58-.1-.59-10.29-.59-10.29,0,0,2.68,8.4,4.16,8.62s-.35-10.97-.35-10.97c0,0,2.42,9.1,3.23,9.65.81.55,1.55-.47,1.47-3.9-.07-3.43-1.03-6.91-1.03-6.91,0,0,2.18,6.27,2.7,6.93.52.66,1.73,1.19,1.08-3.88-.65-5.07-3.83-15.8-7.6-20.51l-7.94,2.16Z"/>
        <path class="cls-4" d="M522.75,514.27l-6.65,55.46s45.12,14.03,92.99-2.43l-5.95-60.89,19.43-8.67s-14.77-29.7-23.64-34.46c-8.88-4.77-38.64-17.45-63.26-7.36-24.63,10.09-41.02,43.17-41.02,43.17,0,0,12.77,17.1,23.85,20.37l4.27-5.19Z"/>
        <g>
          <path class="cls-16" d="M594.94,403.95c.13-5.59.24-11.31-1.46-16.64-6.48-20.39-38.54-24.93-53.47-12.35-6.44,5.43-11.81,13.51-14.19,21.6-2.85,9.7-.15,21.38,8.06,27.27,5.79,4.15,13.39,4.98,20.47,4.15,7.08-.83,13.88-3.16,20.81-4.79,3.31-.78,6.7-1.42,9.73-2.97,2.25-1.15,6.51-2.5,8.08-4.48,2.24-2.82,1.88-8.41,1.96-11.79Z"/>
          <path class="cls-3" d="M594.25,404.42s2.2-3.09,3.81-1.75c4.11,3.41-.24,7.49-3.08,8.34l-.72-6.59Z"/>
          <path class="cls-5" d="M594.16,406.67c1.43-18.3-11.16-34.2-28.12-35.53s-31.87,12.43-33.3,30.73c-1.43,18.29,11.16,34.2,28.12,35.53,16.96,1.33,31.87-12.43,33.3-30.73Z"/>
          <path class="cls-5" d="M551.8,438.28c2.96,3.33.77,14.85.77,14.85-.26,5.74,20.37,6.01,20.62.79-1.11-4.31-2.62-12.61,1.29-13.65,3.25-.86,5.63-1.88,8.91-3.56,19.55-9.99,10.66-36.77,10.66-36.77,0,0-65.46-1.58-58.46,18.89,1.94,5.68,13.09,15.94,16.21,19.45Z"/>
          <path class="cls-2" d="M558.38,411.66c.06-1.76-1.32-3.24-3.09-3.29-1.76-.06-3.24,1.33-3.29,3.09-.06,1.76,1.32,3.24,3.09,3.29,1.76.06,3.24-1.32,3.29-3.09Z"/>
          <path class="cls-2" d="M588.74,408.24c.06-1.76-1.32-3.24-3.09-3.29-1.76-.06-3.24,1.32-3.29,3.09-.06,1.76,1.32,3.24,3.09,3.29,1.76.06,3.24-1.32,3.29-3.09Z"/>
          <path class="cls-3" d="M572.91,419.08c-.4-.03-.7-.38-.67-.78.03-.4.38-.7.78-.67.83.06,1.47-.36,1.8-.77.26-.33.35-.69.26-.96-.16-.4-1.71-1.51-3.32-2.39-.35-.19-.48-.63-.29-.98.19-.35.63-.48.98-.29,1.07.59,3.61,2.07,3.99,3.2.25.73.06,1.6-.49,2.31-.71.91-1.88,1.42-3.05,1.33Z"/>
          <path class="cls-16" d="M549.43,406.76c-.31-.02-.61-.18-.8-.46-.35-.49-.23-1.17.26-1.52,3.3-2.34,7.82-2.28,8.01-2.27.61.02,1.08.51,1.06,1.11-.01.6-.51,1.08-1.11,1.06h0s-4-.05-6.71,1.87c-.22.15-.47.22-.71.2Z"/>
          <path class="cls-16" d="M589.34,403.28c-.16-.01-.33-.06-.48-.15-2.86-1.73-6.79-1.38-6.83-1.38-.6.06-1.13-.38-1.18-.98-.06-.6.38-1.13.98-1.18.19-.02,4.69-.41,8.15,1.68.51.31.68.98.37,1.49-.22.36-.62.55-1.02.52Z"/>
          <path class="cls-8" d="M582.59,421.21s-12.11,4.2-21.83,3.05c0,0,4.59,6.38,12.6,5.3,8.01-1.08,9.23-8.35,9.23-8.35Z"/>
          <path class="cls-16" d="M537.08,416.28c.84.29,7.45-9.87,12.12-20.65,4.67-10.79,16.12-15.47,16.12-15.47,0,0,21.95,5.32,24.84,9.91,2.89,4.59,4.86,13.66,4.86,13.66,0,0,0-14.39-7.35-22.77-7.35-8.38-19.25-15.05-38.92-7.98-19.67,7.07-22.37,39.54-11.67,43.31Z"/>
          <path class="cls-5" d="M539.83,414.46c-.51-1.11-1.43-1.97-2.55-2.47-2.3-1.02-6.38-2.18-9.3.56-4.28,4.01,3.7,15.28,12.13,10.08,0,0,2.43-2.28-.28-8.17Z"/>
          <path class="cls-16" d="M517.5,400.02c1.17-3.33,3.03-6.41,5.43-8.99-1.65.5-3.3,1.01-4.96,1.51-1.57-1.97-.28-5.12,1.91-6.37,2.19-1.25,4.87-1.13,7.38-.99-.17-3.17-.34-6.39.36-9.49.45-1.98,1.41-4.06,3.28-4.86,1.87-.8,4.57.63,4.25,2.63,1.14-4.13,5.31-6.58,9.26-8.23,10.27-4.28,21.59-6.03,32.67-5.04,2.45.22,4.95.59,7.07,1.84,2.12,1.25,3.77,3.55,3.58,6-.77.19-1.54.38-2.32.57,5.79,1.69,11.04,5.15,14.86,9.81,1.67,2.04,3.1,4.94,1.72,7.18-.69,1.13-1.95,1.78-3.18,2.25-4.65,1.8-9.93,1.94-14.67.38-4.77-1.57-9.25-4.83-14.25-4.41.95,1.64,2.82,2.47,4.33,3.63,1.51,1.15,2.78,3.2,1.89,4.87-.74,1.4-2.57,1.75-4.15,1.8-5.38.19-10.81-1.25-15.4-4.06.47,2.55-1.27,5.12-3.58,6.29-2.31,1.17-5.04,1.17-7.6.76-2.06-.33-4.11-.91-6.19-.72-5.83.52-7.63,6.44-12.04,9.21-5.72,3.59-12.54,2.58-9.66-5.59Z"/>
        </g>
        <path class="cls-16" d="M549.02,725.76s21.71,18.77,18.39,20.67c-3.32,1.9-40.36,0-40.36,0l1.77-20.67h20.21Z"/>
        <path class="cls-16" d="M618.29,725.76s21.71,18.77,18.39,20.67c-3.32,1.9-40.36,0-40.36,0l.42-20.67h21.55Z"/>
      </g>
      <path class="cls-8" d="M1319.2,501.78c2.5-.42,5.06-.88,7.32-2.04,11.39-5.84,6.75-24.77-4.46-30.96-11.19-6.19-24.84-4.58-37.59-5.7-12.75-1.13-27.33-7.5-29.3-20.15-1.49-9.56,4.9-20.05.32-28.57-2.03-3.77-5.84-6.22-9.66-8.17-21.01-10.81-47.05-11.24-68.41-1.13-2.9,1.37-5.83,3.04-7.48,5.78-1.55,2.55-1.75,5.66-2.58,8.52-3.6,12.38-18.21,17.99-31.1,18.47-25.31.95-62.34-2.91-66.77,32.33-3.27,26.03,16.22,33.74,37.64,39.52,62.96,16.96,148.96,2.8,212.05-7.89h0Z"/>
      <path class="cls-8" d="M1795.46,457.84c-1.52-.25-3.06-.52-4.42-1.22-6.88-3.51-4.12-14.95,2.63-18.7,6.75-3.76,15-2.81,22.7-3.51,7.69-.7,16.49-4.58,17.66-12.22.88-5.78-3-12.1-.24-17.25,1.22-2.28,3.51-3.76,5.81-4.95,12.67-6.57,28.4-6.87,41.31-.8,1.74.82,3.52,1.83,4.52,3.48.93,1.54,1.06,3.41,1.57,5.14,2.2,7.47,11.03,10.83,18.81,11.1,15.29.53,37.65-1.86,40.38,19.41,2.02,15.71-9.74,20.41-22.67,23.93-38,10.35-89.95,1.95-128.07-4.4h0Z"/>
      <path class="cls-8" d="M1694.94,291.28c65.11,1.46,130.02,17.88,194.74,10.61,7.6-9.99,1.26-27.04-11.03-29.63-4.47-.94-9.26-.25-13.54-1.85-8.06-3.02-11.1-12.53-13.84-20.69-6.58-19.6-17.94-38.62-35.9-48.85-17.96-10.23-43.33-9.1-56.83,6.55-6.21-17.47-22.31-29.96-39.71-36.34-17.4-6.38-36.22-7.54-54.72-8.63-16.91-1-34.53-1.88-50.1,4.78-14.29,6.11-25.71,18.58-30.56,33.34-5.59,17.04-3.37,37.73-15.83,50.62-9.13,9.44-23.28,11.43-36.29,13.25-45.19,6.32-52.18,49.51-1.16,45.57,55.56-4.29,108.26-20,164.77-18.73h0Z"/>
      <path class="cls-8" d="M964.18,395.27c8.81.08,19.1.05,24.45-6.94,5.78-7.52,1.62-19.37-6.35-24.51-7.97-5.14-18.2-5.13-27.6-3.8-20.78,2.95-40.92,11.49-61.89,10.56-8.11-.36-16.21-2.14-24.28-1.21-29.77,3.44-20.05,37.24,4.63,38.74,28.92,1.76,60.9-13.09,91.03-12.83h0Z"/>
      <path class="cls-8" d="M2126.46,350.69c5.57.03,12.09,0,15.48-4.44,3.65-4.78.99-12.27-4.07-15.51-5.07-3.24-11.54-3.22-17.49-2.36-13.16,1.9-25.9,7.35-39.19,6.8-5.13-.21-10.27-1.33-15.37-.72-18.85,2.23-12.64,23.62,3,24.53,18.32,1.06,38.54-8.4,57.63-8.29h0Z"/>
      <path class="cls-15" d="M2158.86,609.6l3.4.89c-.03.13-.43,2.42-1.28,6.54h-3.57c.96-4.68,1.42-7.28,1.45-7.43Z"/>
      <g>
        <path class="cls-11" d="M2732.44,1362.58c-1.15-5.91-115.53-591.43-123.69-616.74l-.43-1.32c-8.21-25.48-15.95-49.55-45.86-45.25-12.58,1.81-22.57,10.44-29.69,25.67-5.5,11.76-7.08,23.17-7.09,23.29l-.06.31-154.96,610.5-6.25-1.34,154.93-610.36c.51-3.61,7.58-48.94,42.13-53.9,35.43-5.09,44.77,23.86,53,49.4l.42,1.32c8.27,25.62,119.14,593.22,123.86,617.38l-6.31,1.04Z"/>
        <path class="cls-11" d="M2257.37,1362.23c-1.32-5.91-132.5-591.43-141.86-616.74l-.49-1.32c-9.42-25.48-18.29-49.55-52.59-45.25-14.43,1.81-25.89,10.44-34.05,25.67-6.3,11.76-8.12,23.17-8.13,23.29l-.07.31-177.72,610.5-7.16-1.34,177.68-610.36c.58-3.61,8.69-48.94,48.32-53.9,40.63-5.09,51.34,23.86,60.78,49.4l.49,1.32c9.48,25.62,136.64,593.22,142.05,617.38l-7.24,1.04Z"/>
        <g>
          <path class="cls-11" d="M2312.24,695.46c-.03.16-.53,2.99-1.58,8.08-5.37,26.24-25.05,112.54-67.78,203.52-.64,1.37-1.29,2.72-1.93,4.07-8.7,18.28-17.84,35.68-27.42,52.21-.97,1.69-1.95,3.36-2.93,5.04-.34.56-.68,1.14-1.01,1.71-.16.27-.34.56-.5.84-1.61,2.7-3.23,5.37-4.86,8.01-3.33,5.41-6.71,10.71-10.14,15.93-3.99,6.08-8.06,12.02-12.2,17.81-.03.08-.08.14-.14.21-1,1.42-2.01,2.83-3.02,4.21-1.08,1.51-2.17,2.99-3.3,4.47-.87,1.21-1.77,2.41-2.69,3.6-2.38,3.17-4.78,6.27-7.22,9.35-8.93,11.31-18.13,21.98-27.59,31.98-6,6.36-12.1,12.42-18.29,18.23-7.5,7.05-15.16,13.69-22.94,19.92-1.77,1.43-3.56,2.85-5.34,4.2-9.62,7.45-19.44,14.29-29.47,20.5-5.2,3.27-10.47,6.34-15.78,9.24-1.24.69-2.46,1.35-3.7,2.01-23.25,12.36-47.49,21.61-72.62,27.71l-.84-5.15c21.9-5.31,43.12-13.05,63.58-23.2,2.94-1.43,5.87-2.94,8.78-4.5,7.61-4.05,15.12-8.46,22.51-13.21,7.22-4.62,14.33-9.56,21.33-14.82,2.19-1.64,4.38-3.31,6.53-5.02,12.58-9.89,24.81-20.83,36.6-32.79,2.32-2.32,4.59-4.67,6.85-7.06,5.28-5.58,10.47-11.39,15.59-17.39,1.62-1.9,3.23-3.81,4.84-5.76,1.85-2.24,3.7-4.5,5.52-6.81,2.78-3.47,5.52-7,8.25-10.6,1.01-1.34,2.03-2.69,3.02-4.05.92-1.22,1.82-2.45,2.72-3.68,1-1.37,2-2.77,2.99-4.17,0,0,.02,0,.02-.02.8-1.13,1.62-2.27,2.43-3.41.29-.4.58-.82.87-1.24.34-.48.67-.96,1-1.45.39-.53.74-1.06,1.11-1.59,2.2-3.2,4.41-6.45,6.56-9.73,3.4-5.12,6.74-10.34,10.02-15.67,1.59-2.56,3.17-5.15,4.73-7.77.19-.31.37-.61.55-.92.31-.5.6-1,.9-1.5.96-1.62,1.93-3.28,2.9-4.94,9.6-16.51,18.79-33.9,27.53-52.18.84-1.72,1.66-3.46,2.48-5.21,41.85-89.1,61.43-173.58,67.09-200.92,1.19-5.78,1.75-8.99,1.79-9.17l4.2,1.09Z"/>
          <path class="cls-16" d="M2169.23,1171.34s12.86-11.26,10.04-25.74c-2.81-14.48-40.02-11.66-40.02-11.66l29.98,37.4Z"/>
          <g>
            <g>
              <path class="cls-8" d="M1966.11,1066.55l22.68,6.29-5.49,13.57-26.18-7.63s4.08-11,8.99-12.23Z"/>
              <path class="cls-11" d="M1959.21,1079.25s.87-6.03,6.9-12.7c0,0,4.78-26.86-2.01-30.33,0,0-1.27-2.18-7.17,7.72-5.91,9.91-15.29,25.17-15.33,25.72-.04.55.05,5.85,17.61,9.58Z"/>
              <path class="cls-8" d="M1941.59,1069.67c.04-.55,9.42-15.81,15.33-25.72,5.9-9.91,7.17-7.72,7.17-7.72.45.23.84.57,1.19.99l-20.66,36.69c-3.03-2.15-3.06-3.92-3.03-4.23Z"/>
            </g>
            <path class="cls-11" d="M2164.34,1136.99s-113.83-58.42-189.93-79.07l-9.76,27.35,156.61,102.47,43.08-50.75Z"/>
          </g>
          <g>
            <g>
              <path class="cls-5" d="M2222.89,1064.34s28.94,12.84,60.86,11.12l2.52,11.57s-47.73,7.18-73.09-1.65c0,0,8.88-13.38,9.7-21.04Z"/>
              <path class="cls-5" d="M2281.36,1077.04s8.29-6.67,11.82-8.42c3.53-1.75,5.65-6.06,7.3-4.47s-3.27,7.36-3.27,7.36l7.53.07-2.6,9.21-.13,4.43s4.99,1.62-.82,2.51c-5.81.89-13.31,1.47-19.71-1.21l-.11-9.47Z"/>
            </g>
            <g>
              <path class="cls-5" d="M2159,1041.5s-54.24-32.36-60.47-56.73l-9.74,2.54s9.46,49.43,47.44,64.25l22.78-10.06Z"/>
              <path class="cls-5" d="M2098.24,987.27s3.11-8.75,3.53-12.17c.42-3.41,3.36-6.41,1.58-7.3-1.78-.89-5.12,4.82-5.12,4.82,0,0-2.4-6.57-2.83-8.7-.43-2.13-2.17-5.75-3.75-5.55-1.58.19,1.2,10.29,1.2,10.29,0,0-3.18-8.27-4.68-8.4-1.5-.13,1,10.98,1,10.98,0,0-2.96-8.99-3.8-9.49-.85-.5-1.52.56-1.25,4,.27,3.44,1.44,6.87,1.44,6.87,0,0-2.55-6.16-3.12-6.79-.56-.63-1.8-1.09-.86,3.96s4.77,15.62,8.83,20.13l7.83-2.63Z"/>
            </g>
            <path class="cls-8" d="M2205.4,1091.71l-26.93,68.24s-45.14-6.84-79.57-38.91l33.4-58.42-17.14-17.07,17.15-25.79s25.25,11.34,33.85,15.04c12.12,5.21,5.93,2.62,29.13,11.2,18.38,6.8,44.02,22.53,44.02,22.53,0,0,2.61,11.26-8.83,21.34l-25.08,1.84Z"/>
            <g>
              <path class="cls-16" d="M2168.91,986.81c1.95-4.82,3.96-9.74,7.37-13.67,13.04-15.02,42.08-7.08,50.19,9.16,3.5,7,5.11,15.88,4.15,23.66-1.14,9.33-7.75,18.3-16.93,20.31-6.47,1.41-13.27-.68-19-4-5.73-3.32-10.68-7.81-16-11.76-2.54-1.89-5.2-3.68-7.21-6.12-1.49-1.81-4.64-4.54-5.25-6.8-.87-3.24,1.49-7.87,2.67-10.78Z"/>
              <path class="cls-3" d="M2169.32,987.47s-.74-3.45-2.6-2.9c-4.76,1.4-2.55,6.49-.44,8.25l3.04-5.36Z"/>
              <path class="cls-5" d="M2168.57,989.42c5.52-16.14,22.13-25.08,37.09-19.96,14.96,5.12,22.62,22.35,17.1,38.49-5.52,16.14-22.13,25.08-37.09,19.96-14.96-5.12-22.62-22.35-17.1-38.49Z"/>
              <path class="cls-5" d="M2202.47,1030.28c-3.76,1.75-7.18,15.72-7.18,15.72-.46,4.18-8.47,5.84-12.93,5.83-7.73-.02-20.57-4.78-11.13-14.92,1.83.43,5.81,2.26,6.9-1.34h0c.17-3.75-1.5-7.33-4.45-9.65-2.46-1.93-4.8-4.24-6.99-6.89-13-15.73,4.45-35.31,4.45-35.31,0,0,56.45,22.76,42.94,37.66-3.75,4.14-7.66,7.06-11.61,8.9Z"/>
              <path class="cls-2" d="M2197.27,1006.86c.6-1.52,2.32-2.27,3.85-1.67,1.52.6,2.27,2.32,1.67,3.85-.6,1.52-2.32,2.27-3.85,1.67-1.52-.6-2.27-2.32-1.67-3.85Z"/>
              <path class="cls-2" d="M2172.61,992.76c.6-1.53,2.32-2.28,3.85-1.67,1.53.6,2.28,2.32,1.67,3.85s-2.32,2.27-3.85,1.67c-1.53-.6-2.27-2.32-1.67-3.85Z"/>
              <path class="cls-3" d="M2182.14,1007.84c.35.12.74-.07.86-.42.12-.35-.07-.73-.42-.86-.73-.25-1.12-.85-1.25-1.32-.1-.38-.05-.72.13-.91.28-.28,2.02-.66,3.71-.82.37-.03.64-.36.61-.73-.03-.37-.36-.64-.73-.61-1.13.1-3.85.44-4.59,1.26-.48.53-.64,1.34-.43,2.15.27,1.04,1.08,1.9,2.12,2.26Z"/>
              <path class="cls-16" d="M2206.72,1005.98c.27.09.59.07.85-.09.48-.29.63-.91.34-1.39-1.96-3.21-5.84-4.82-6-4.89-.52-.21-1.11.04-1.32.55-.21.52.04,1.11.55,1.32h0s3.43,1.43,5.04,4.07c.13.21.32.36.54.43Z"/>
              <path class="cls-16" d="M2173.93,988.31c.15.05.3.07.46.04,3.08-.42,6.3,1.32,6.33,1.34.49.27,1.1.09,1.37-.4.27-.49.09-1.1-.4-1.37-.16-.09-3.85-2.08-7.58-1.57-.55.08-.94.59-.86,1.14.05.39.33.7.67.82Z"/>
              <path class="cls-8" d="M2173.09,1006.1s8.79,8.05,17.51,10.65c0,0-6.27,3.75-12.71-.11-6.44-3.87-4.8-10.53-4.8-10.53Z"/>
              <path class="cls-16" d="M2213.75,1018.65c-.82-.06-2.72-11.16-2.74-22.09-.01-10.93-8.06-19.14-8.06-19.14,0,0-20.69-3.55-24.85-.69-4.15,2.86-9.18,9.87-9.18,9.87,0,0,5.3-12.29,14.66-16.73,9.36-4.45,21.98-5.75,36.16,7.53,14.19,13.28,4.53,41.99-6,41.27Z"/>
              <path class="cls-5" d="M2212.07,1016.09c.84-.76,1.95-1.16,3.09-1.17,2.34-.02,6.25.49,7.73,3.9,2.18,5-8.79,11.68-14.07,4.14,0,0-1.24-2.84,3.25-6.88Z"/>
              <path class="cls-16" d="M2227.91,980.46c6.28-2.32,12.86,2.73,19.55,2.99,8.59.33,15.41-7.08,23.65-9.51,3.3-.98,6.81-1.13,10.24-.8,3.12.3,6.25,1.02,8.93,2.64,4.99,3.02,7.83,9.12,7.23,14.91-.61,5.8-4.49,11.07-9.72,13.66-5.23,2.58-11.62,2.51-16.93.11-3.75-1.7-7.1-4.52-11.18-5.1-4.18-.6-8.3,1.27-11.95,3.39-1.54.89-3.34,1.87-5.01,1.25-1.63-.6-2.36-2.43-3.06-4.02-1.33-3.04-3.35-6.01-6.41-7.28-3.03-1.25-6.91-.18-8.35,2.87-1.14-2.65-3.09-4.84-2.74-7.84.36-3.15,2.79-6.19,5.74-7.27Z"/>
              <path class="cls-16" d="M2189.54,957.12c2.82-6.08,11.04-7.14,15.96-11.68,6.32-5.83,5.92-15.89,10.04-23.43,1.65-3.02,4.03-5.61,6.69-7.79,2.42-1.99,5.15-3.69,8.19-4.43,5.66-1.39,11.98.93,15.65,5.47,3.66,4.54,4.64,11.01,2.75,16.53-1.88,5.52-6.45,9.98-11.91,12.02-3.86,1.44-8.22,1.81-11.52,4.27-3.38,2.52-4.98,6.76-6.07,10.84-.46,1.72-1.04,3.68-2.66,4.42-1.58.72-3.39-.06-5.01-.69-3.09-1.21-6.61-1.89-9.68-.63-3.03,1.25-5.02,4.75-3.89,7.93-2.67-1.08-5.6-1.25-7.47-3.62-1.96-2.49-2.39-6.36-1.07-9.21Z"/>
            </g>
          </g>
          <path class="cls-4" d="M2173.35,1239.02l-150.27-9.79c-8.93-.58-17.08-5.29-22.05-12.74l-32.1-48.19c-9.26-13.91,1.43-32.4,18.1-31.31l152.35,9.92c8.93.58,17.08,5.29,22.05,12.74l30.94,46.45c9.74,14.62-1.5,34.06-19.03,32.91Z"/>
          <g>
            <g>
              <path class="cls-8" d="M2060.11,1198.95l-2.27-23.43,14.64.26,2.28,27.17s-11.73.14-14.64-4Z"/>
              <path class="cls-11" d="M2074.44,1200.83s-5.94,1.35-14.33-1.88c0,0-26.78,5.18-27.58,12.76,0,0-1.58,1.97,9.79,3.92,11.37,1.95,28.99,5.23,29.51,5.07.52-.16,5.44-2.14,2.62-19.88Z"/>
              <path class="cls-8" d="M2071.82,1220.71c-.52.16-18.14-3.12-29.51-5.07-11.37-1.95-9.79-3.92-9.79-3.92.05-.5.23-.99.49-1.47l41.66,6.12c-.92,3.6-2.57,4.26-2.86,4.35Z"/>
            </g>
            <path class="cls-16" d="M2169.23,1171.34s-8.43-30.96-42.65-48.51c-26.95-13.83-53.73-20.29-57.52-14.03-9.86,16.31-19.12,86.58-19.12,86.58l29.36-3.08s2.58-38.1,21.18-41.85c18.6-3.75,55.08,2.77,55.08,2.77l13.67,18.12Z"/>
          </g>
          <path class="cls-11" d="M2435.35,691.44c-.27,3.31-.64,7.37-1.13,12.1-3.68,36.63-14.05,113.59-41.06,196.09-21.95,67.03-50.42,124.59-84.64,171.09-.35.48-.71.96-1.08,1.45v.02c-1.24,1.67-2.48,3.31-3.75,4.96-.27.37-.55.74-.84,1.09l-.02.02c-.8,1.06-1.61,2.09-2.43,3.14-.05.06-.1.13-.16.21v.02c-.8,1.03-1.62,2.04-2.45,3.06-.27.35-.53.68-.82,1.03v.02c-.59.74-1.19,1.48-1.8,2.2-.13.16-.26.32-.4.48-34.25,41.81-73.82,73.43-117.99,94.3-7.43,3.52-15.01,6.72-22.7,9.64l-1.45-5c7.21-2.72,14.29-5.71,21.27-8.96,42.83-20.01,81.28-50.21,114.75-90.11,2.2-2.61,4.38-5.26,6.52-7.96.58-.72,1.16-1.45,1.74-2.19.29-.37.58-.74.88-1.13,1.4-1.79,2.77-3.57,4.13-5.41l.02-.02h.02c1.11-1.46,2.2-2.94,3.3-4.42,33.9-46.06,62.12-103.14,83.9-169.64,26.64-81.41,36.99-157.3,40.72-193.95.47-4.7.84-8.77,1.13-12.1h4.34Z"/>
          <path class="cls-3" d="M2304.71,1070.54s-12.78,4.34-9.27,5.76c3.52,1.42,8.31.83,8.31.83,0,0-10.38,1.08-10.3,2.2.08,1.12,8.05,2.22,8.05,2.22,0,0-7.01.1-7.57,1.7-.56,1.6,6.79,1.52,6.79,1.52,0,0-6.07,1.04-5.91,2.64.16,1.6,7.58,1.04,8.47.56.89-.48,8.39-18.93,1.44-17.42Z"/>
        </g>
        <path class="cls-11" d="M2565.13,691.44h-506.49c-3.17,0-5.74,2.59-5.74,5.76v.58c0,3.17,2.57,5.76,5.74,5.76h506.49c3.17,0,5.76-2.59,5.76-5.76v-.58c0-3.17-2.59-5.76-5.76-5.76Z"/>
      </g>
      <g>
        <g>
          <g>
            <path class="cls-11" d="M321.16,1357.58h0c-3.87,0-6.25-3.06-5.29-6.8l134.42-520.04c.97-3.74,4.92-6.79,8.8-6.78h0c3.87,0,6.25,3.07,5.29,6.8l-134.43,520.04c-.97,3.74-4.92,6.79-8.8,6.78Z"/>
            <path class="cls-11" d="M516.35,1357.83h0c-3.87,0-6.25-3.07-5.29-6.8l134.43-520.04c.97-3.74,4.92-6.79,8.8-6.78h0c3.87,0,6.25,3.07,5.29,6.8l-134.42,520.04c-.97,3.74-4.92,6.79-8.8,6.78Z"/>
            <path class="cls-11" d="M380.6,1100.4l1.35-5.23c.59-2.3,3.03-4.18,5.41-4.17l200.77.26c2.38,0,3.85,1.89,3.25,4.18l-1.35,5.23c-.59,2.3-3.03,4.18-5.41,4.17l-200.77-.26c-2.38,0-3.85-1.88-3.25-4.18Z"/>
            <path class="cls-11" d="M410.19,985.91l1.35-5.23c.59-2.3,3.03-4.18,5.41-4.17l200.77.26c2.38,0,3.85,1.89,3.25,4.18l-1.35,5.23c-.59,2.3-3.03,4.18-5.41,4.17l-200.77-.26c-2.38,0-3.85-1.89-3.25-4.18Z"/>
            <path class="cls-11" d="M358.04,1214.9l1.35-5.23c.59-2.3,3.03-4.18,5.41-4.17l200.77.26c2.38,0,3.85,1.89,3.25,4.18l-1.35,5.23c-.59,2.3-3.03,4.18-5.41,4.17l-200.77-.26c-2.38,0-3.85-1.89-3.25-4.18Z"/>
          </g>
          <rect class="cls-11" x="453.22" y="746.59" width="363.65" height="88.37"/>
          <path class="cls-7" d="M1343.11,1346.58c-169.7-24.35-331.82-343.93-344.61-450.68-15.11-126.27-90.22-135.49-90.22-135.49l-272.76-12.28-.28-.9-.2-.63v-56.03h282.62s62.31-1.12,103.88,56.22c11.83,16.3,21.98,37.33,28.54,64.46,29.5,121.93,125.3,434.67,293.02,535.33Z"/>
          <path class="cls-4" d="M1343.11,1346.58h-233.22c-7.05,0-13.98-.5-20.78-1.48-169.7-24.35-259.65-342.45-272.43-449.21-15.11-126.27-90.22-135.49-90.22-135.49l-272.76-12.28,25.93-.9h354.88s1.86-.25,5.22-.43c26.42-1.48,145.64,1.01,181.89,161.19,21.31,94.16,105.44,250.72,144.94,310.96,52.71,80.38,176.56,127.64,176.56,127.64Z"/>
          <path class="cls-12" d="M1089.11,1345.11c-169.7-24.35-259.65-342.45-272.43-449.21-15.11-126.27-90.22-135.49-90.22-135.49l-272.76-12.28-.28-.9-.2-.63h0c0-30.94,25.08-56.03,56.03-56.03h226.59s62.31-1.12,103.88,56.22c11.83,16.3,21.98,37.33,28.54,64.46,29.5,121.93,53.13,433.2,220.85,533.85Z"/>
        </g>
        <path class="cls-16" d="M944.47,772.36c-.48-4.89.57-9.78,1.61-14.58,1.01-4.65,2.12-9.52,5.22-13.14-1,1.65-1.25,3.73-.67,5.57,4.82-3.46,6.58-9.72,10.13-14.47,3.97-5.3,10.04-8.52,15.92-11.58-.89,4.37-3.78,8.01-6.58,11.48,12.02-1.84,23.88-4.72,35.4-8.6-1.99,3.49-4.7,6.57-7.91,8.98,8.19.43,16.41.16,24.56-.82-1.12,2.89-2.24,5.78-3.36,8.67-.35.91-.69,2.01-.13,2.82.34.49.94.72,1.5.93,4.37,1.64,8.73,3.27,13.1,4.91-1.87,3.8-3.88,7.54-6.01,11.2-.68,1.16-1.42,2.37-2.62,2.98-2.45,1.25-5.27-.55-7.6-2.01-6.03-3.78-13.24-5.65-20.35-5.28,4.21,1.68,8.56,3.02,12.99,4-6.57,1.97-13.47,2.79-20.31,2.43-5.5-.29-11.46-1.24-16.16,1.63-.41.25-.82.54-1.3.64-.85.18-1.69-.26-2.48-.64-3.27-1.57-7.7-1.93-10.09.8-.8.92-1.27,2.07-1.72,3.2-1.3,3.25-2.59,6.52-3.46,9.92-.6,2.31-.2,7.25-2,8.82-4.25-3.88-7.13-12.2-7.68-17.83Z"/>
        <g>
          <path class="cls-5" d="M1001.59,970.95s49.98,98.33,78.37,130.53c0,0,26.91-3.79,28.67-7.99,1.75-4.19-10.62-3.9-16.13-11-5.5-7.1-55.37-115.33-55.37-115.33l-35.54,3.79Z"/>
          <path class="cls-16" d="M1073.69,1093.77c2.35.29,5.58.79,9.91,1.71,7.8,1.67,14.71-4.24,17.61-7.2,4.52,1.81,8.45,2.72,7.41,5.21-1.75,4.19-28.67,7.99-28.67,7.99-1.99-2.25-4.09-4.86-6.27-7.71Z"/>
          <path class="cls-8" d="M1090.43,1079.51s30.62,6.61,28.43,10.17c-2.19,3.56-38.65,21.13-38.65,21.13l-9.13-20.72,19.35-10.58Z"/>
        </g>
        <g>
          <path class="cls-5" d="M955.23,979.46s26.03,107.18,46.25,145.05c0,0,27.07,2.5,29.73-1.18,2.67-3.68-9.44-6.24-13.16-14.42-3.72-8.18-27.36-124.97-27.36-124.97l-35.46-4.48Z"/>
          <path class="cls-16" d="M997.16,1115.57c2.23.82,5.25,2.05,9.25,3.95,7.21,3.42,15.3-.74,18.79-2.96,3.98,2.8,7.6,4.59,6.01,6.77-2.67,3.68-29.74,1.18-29.74,1.18-1.42-2.65-2.86-5.67-4.32-8.94Z"/>
          <path class="cls-8" d="M1016.73,1105.54s28.28,13.48,25.33,16.44c-2.95,2.96-42.48,11.68-42.48,11.68l-4.12-22.27,21.26-5.85Z"/>
        </g>
        <polygon class="cls-11" points="944.35 948.12 965.76 1062.08 1014.38 1056.56 1001.59 970.95 1037.69 1052.4 1078.94 1039.4 1028.41 932.66 944.35 948.12"/>
        <g>
          <path class="cls-5" d="M1042.42,829.73s26-15.02,42.51-40.45l10.28,4.53s-21.15,40.6-42.07,55.1c0,0-5.3-14.28-10.71-19.18Z"/>
          <path class="cls-5" d="M1084.81,792s-.48-10.08.15-13.76c.63-3.68-1.49-7.72.65-8.09,2.13-.37,3.81,6.62,3.81,6.62,0,0,4.56-6.08,5.67-8.16,1.12-2.08,4.06-5.3,5.65-4.6,1.59.7-4.48,10.32-4.48,10.32,0,0,5.9-7.6,7.5-7.27,1.6.33-4.48,11.11-4.48,11.11,0,0,5.9-8.42,6.94-8.67,1.04-.26,1.41,1.06.04,4.55-1.36,3.49-3.66,6.7-3.66,6.7,0,0,4.59-5.6,5.37-6.08.78-.48,2.22-.57-.35,4.38-2.57,4.95-9.86,14.75-15.5,18.16l-7.32-5.2Z"/>
        </g>
        <g>
          <path class="cls-5" d="M919.05,829.73s-26-15.02-42.51-40.45l-10.28,4.53s21.15,40.6,42.07,55.1c0,0,5.3-14.28,10.71-19.18Z"/>
          <path class="cls-5" d="M876.66,792s.48-10.08-.15-13.76c-.63-3.68,1.49-7.72-.65-8.09-2.13-.37-3.81,6.62-3.81,6.62,0,0-4.56-6.08-5.67-8.16-1.12-2.08-4.06-5.3-5.65-4.6-1.59.7,4.48,10.32,4.48,10.32,0,0-5.9-7.6-7.5-7.27-1.6.33,4.48,11.11,4.48,11.11,0,0-5.9-8.42-6.94-8.67-1.04-.26-1.41,1.06-.04,4.55,1.36,3.49,3.66,6.7,3.66,6.7,0,0-4.59-5.6-5.37-6.08-.78-.48-2.22-.57.35,4.38s9.86,14.75,15.5,18.16l7.32-5.2Z"/>
        </g>
        <path class="cls-8" d="M937.4,877.61l2.09,82.51s49.35,15,101.47-3.29l-6.92-79.54,54.72-66.47s-8.27-15.22-13.02-12.23c-65.03,40.93-77.22,31.49-106.23,33-32.71,1.7-87.01-37.83-87.01-37.83,0,0-5.35,4.11-10.68,13.13,0,0,22.13,31.54,30.48,40.55,8.04,8.67,35.11,30.16,35.11,30.16Z"/>
        <g>
          <path class="cls-16" d="M1024.4,778.64c.1-6.11.18-12.34-1.7-18.15-7.21-22.21-42.23-26.94-58.45-13.12-7,5.97-12.8,14.82-15.34,23.67-3.04,10.61-.02,23.34,8.99,29.71,6.35,4.49,14.65,5.35,22.37,4.39,7.72-.96,15.13-3.54,22.68-5.38,3.61-.88,7.31-1.6,10.6-3.3,2.44-1.27,7.09-2.78,8.79-4.95,2.43-3.1,2-9.19,2.06-12.88Z"/>
          <path class="cls-3" d="M1023.65,779.16s2.38-3.39,4.14-1.94c4.51,3.7-.21,8.18-3.31,9.12l-.83-7.18Z"/>
          <path class="cls-5" d="M1023.56,781.62c1.44-19.98-12.42-37.25-30.94-38.58-18.52-1.33-34.7,13.79-36.14,33.76-1.44,19.98,12.42,37.25,30.94,38.58,18.52,1.33,34.7-13.79,36.13-33.76Z"/>
          <path class="cls-5" d="M977.55,816.41c3.26,3.62.95,16.21.95,16.21-.24,6.26,22.27,6.42,22.52.72-1.24-4.69-2.94-13.75,1.31-14.9,3.55-.96,6.13-2.1,9.71-3.95,21.27-11.04,11.38-40.21,11.38-40.21,0,0-71.45-1.28-63.68,21.02,2.16,6.19,14.39,17.31,17.82,21.12Z"/>
          <path class="cls-2" d="M984.54,787.31c.05-1.92-1.47-3.52-3.39-3.57-1.92-.05-3.52,1.47-3.57,3.39-.05,1.92,1.47,3.52,3.39,3.57,1.92.05,3.52-1.47,3.57-3.39Z"/>
          <path class="cls-2" d="M1017.67,783.38c.05-1.92-1.47-3.52-3.39-3.57-1.92-.05-3.52,1.47-3.57,3.39s1.47,3.52,3.39,3.57c1.92.05,3.52-1.47,3.57-3.39Z"/>
          <path class="cls-3" d="M1000.46,795.31c-.44-.03-.76-.41-.73-.85.03-.44.41-.76.85-.73.91.07,1.6-.4,1.96-.86.28-.36.38-.75.28-1.05-.18-.43-1.88-1.64-3.64-2.59-.38-.21-.53-.69-.32-1.07.21-.38.69-.53,1.07-.32,1.18.63,3.96,2.23,4.38,3.46.28.8.08,1.74-.52,2.53-.77,1-2.04,1.56-3.32,1.47Z"/>
          <path class="cls-16" d="M974.74,782.02c-.34-.02-.67-.19-.88-.49-.38-.53-.26-1.27.27-1.66,3.59-2.58,8.52-2.54,8.73-2.53.66.02,1.18.55,1.17,1.2,0,.66-.55,1.18-1.2,1.17h0s-4.37-.02-7.31,2.09c-.23.17-.51.24-.78.22Z"/>
          <path class="cls-16" d="M1018.28,777.95c-.18-.01-.36-.07-.52-.16-3.13-1.87-7.42-1.46-7.46-1.46-.66.07-1.23-.41-1.3-1.06-.06-.65.41-1.23,1.06-1.3.21-.02,5.12-.48,8.91,1.78.56.34.75,1.06.41,1.63-.24.4-.67.61-1.1.58Z"/>
          <path class="cls-8" d="M1011.03,797.57s-13.19,4.67-23.81,3.48c0,0,5.05,6.93,13.79,5.7,8.74-1.23,10.02-9.18,10.02-9.18Z"/>
          <path class="cls-16" d="M961.34,792.5c.91.32,8.06-10.82,13.09-22.62,5.03-11.81,17.49-16.99,17.49-16.99,0,0,24,5.65,27.18,10.64,3.18,4.99,5.39,14.87,5.39,14.87,0,0-.1-15.71-8.17-24.81-8.08-9.1-21.12-16.29-42.54-8.44-21.42,7.85-24.14,43.31-12.44,47.35Z"/>
          <path class="cls-5" d="M964.33,790.5c-.56-1.21-1.58-2.14-2.8-2.68-2.52-1.09-6.98-2.33-10.15.67-4.65,4.41,4.15,16.65,13.31,10.92,0,0,2.64-2.5-.36-8.92Z"/>
        </g>
      </g>
      <g>
        <g>
          <path class="cls-4" d="M527.8,983.8c-2.32,9.51-.58,20.08-5.14,28.75-6.68,12.7-25.08,17.75-27.84,31.83-1.45,7.4,1.92,16.01-2.53,22.09-2.55,3.48-7.09,5.1-9.55,8.64-2.22,3.2-2.35,7.36-2.29,11.25.07,4.34.39,8.97,2.99,12.44,2.77,3.69,7.5,5.25,11.98,6.33,13.72,3.32,28.06,4.11,42.06,2.32,12.51-1.6,25.66-5.15,37.34-.38,3.13,1.28,6.02,3.12,9.24,4.14,4.75,1.5,9.87,1.12,14.81.5,11.85-1.47,23.55-4.18,34.84-8.07,2.43-.84,4.89-1.75,6.87-3.39,6.52-5.38,5.16-15.9,1.14-23.33-4.02-7.43-10.15-13.98-11.86-22.26-1.51-7.29.65-14.78,2.82-21.89,1.1-3.6,2.22-7.27,2.14-11.04-.09-4.13-1.63-8.08-3.14-11.93-4.71-11.96-9.43-23.93-14.14-35.89-1.69-4.28-3.43-8.66-6.52-12.08-2.96-3.28-6.99-5.45-11.19-6.81-7.5-2.42-15.73-2.28-23.2.19-7.31,2.42-12.07,1.97-19.58,3.02-13.5,1.9-25.98,12.15-29.25,25.57Z"/>
          <path class="cls-5" d="M531,1240.33s-3.73,124.02,6.92,171.12c0,0,28.61,10.78,32.6,7.59,3.99-3.19-8.38-9.58-9.98-19.56-1.6-9.98,7.58-143.71,7.58-143.71l-37.13-15.44Z"/>
          <path class="cls-5" d="M591.65,1240.33s-3.73,124.02,6.92,171.12c0,0,28.61,10.78,32.6,7.59,3.99-3.19-8.38-9.58-9.98-19.56-1.6-9.98,7.58-143.71,7.58-143.71l-37.13-15.44Z"/>
          <path class="cls-16" d="M596.54,1400.47c2.17,1.55,5.09,3.79,8.86,7.04,6.8,5.86,16.81,3.75,21.26,2.39,3.48,4.22,6.87,7.25,4.5,9.14-3.99,3.19-32.6-7.59-32.6-7.59-.75-3.3-1.41-7.01-2.02-10.99Z"/>
          <path class="cls-16" d="M535.89,1400.47c2.17,1.55,5.09,3.79,8.86,7.04,6.8,5.86,16.81,3.75,21.26,2.39,3.48,4.22,6.87,7.25,4.5,9.14-3.99,3.19-32.6-7.59-32.6-7.59-.75-3.3-1.41-7.01-2.02-10.99Z"/>
          <path class="cls-5" d="M520.16,1141.26s-21.64,25.93-29.23,59.18l-12.61-.8s6.61-51.06,23.09-74.49c0,0,11.12,13.03,18.75,16.11Z"/>
          <path class="cls-5" d="M490.01,1197.52s4.42,10.46,5.17,14.59c.76,4.13,4.56,7.58,2.45,8.79-2.11,1.22-6.59-5.51-6.59-5.51,0,0-2.46,8.19-2.83,10.82-.37,2.63-2.24,7.17-4.18,7.04-1.95-.12.73-12.63.73-12.63,0,0-3.29,10.31-5.11,10.58-1.82.27.43-13.47.43-13.47,0,0-2.97,11.17-3.97,11.84-1,.67-1.9-.58-1.81-4.79.09-4.21,1.27-8.49,1.27-8.49,0,0-2.67,7.7-3.32,8.51-.64.81-2.12,1.46-1.33-4.76.79-6.22,4.7-19.4,9.33-25.19l9.74,2.66Z"/>
          <path class="cls-5" d="M628.7,1137.82s21.64,25.93,29.23,59.18l12.61-.8s-6.61-51.07-23.09-74.49c0,0-11.12,13.03-18.75,16.11Z"/>
          <path class="cls-5" d="M658.85,1194.08s-4.41,10.46-5.17,14.59c-.76,4.13-4.56,7.58-2.45,8.79,2.11,1.22,6.59-5.51,6.59-5.51,0,0,2.46,8.19,2.83,10.82.37,2.63,2.24,7.16,4.18,7.04,1.95-.12-.73-12.63-.73-12.63,0,0,3.29,10.31,5.11,10.58,1.82.27-.43-13.47-.43-13.47,0,0,2.97,11.17,3.97,11.85,1,.67,1.9-.58,1.81-4.79-.09-4.21-1.27-8.49-1.27-8.49,0,0,2.67,7.7,3.32,8.51.64.81,2.12,1.46,1.33-4.76-.79-6.22-4.7-19.4-9.33-25.19l-9.74,2.66Z"/>
          <path class="cls-11" d="M528.29,1139.81l-4.27,70.81s51.51,14.51,110.27-5.7l-5.6-61.13,29.8-12.24s-25.79-48.48-36.69-54.33c-10.9-5.85-46.99-20.27-77.67-9.04-44.89,16.42-57.43,78.53-57.43,78.53,0,0,19.86,8.63,33.46,12.65l8.13-19.54Z"/>
          <g>
            <path class="cls-4" d="M616.92,1004.37c.16-6.87.29-13.88-1.79-20.43-7.95-25.04-47.32-30.61-65.65-15.17-7.91,6.66-14.51,16.58-17.42,26.52-3.49,11.91-.19,26.25,9.9,33.48,7.11,5.1,16.44,6.12,25.13,5.09,8.69-1.02,17.04-3.88,25.55-5.89,4.06-.96,8.23-1.75,11.95-3.64,2.76-1.41,8-3.07,9.92-5.5,2.75-3.47,2.31-10.32,2.41-14.47Z"/>
            <path class="cls-3" d="M616.07,1004.94s2.7-3.79,4.67-2.15c5.04,4.19-.3,9.2-3.79,10.24l-.89-8.09Z"/>
            <path class="cls-5" d="M615.96,1007.71c1.76-22.46-13.7-41.99-34.53-43.62-20.83-1.63-39.13,15.26-40.89,37.73-1.75,22.46,13.7,41.99,34.53,43.62,20.83,1.63,39.13-15.26,40.89-37.73Z"/>
            <path class="cls-5" d="M563.95,1046.52c3.64,4.09.95,18.24.95,18.24-.32,7.04,25.01,7.38,25.32.97-1.37-5.29-3.21-15.49,1.58-16.76,4-1.06,6.91-2.31,10.95-4.38,24-12.26,13.08-45.15,13.08-45.15,0,0-80.37-1.94-71.78,23.2,2.38,6.98,16.07,19.58,19.9,23.88Z"/>
            <path class="cls-2" d="M572.03,1013.83c.07-2.16-1.63-3.97-3.79-4.04-2.16-.07-3.97,1.63-4.04,3.79-.07,2.16,1.63,3.97,3.79,4.04,2.16.07,3.97-1.63,4.04-3.79Z"/>
            <path class="cls-2" d="M609.31,1009.64c.07-2.16-1.63-3.97-3.79-4.05-2.16-.07-3.97,1.63-4.04,3.79-.07,2.16,1.63,3.97,3.79,4.04s3.97-1.63,4.04-3.79Z"/>
            <path class="cls-3" d="M589.87,1022.94c-.49-.04-.86-.47-.82-.96.04-.49.47-.86.96-.82,1.02.08,1.81-.44,2.21-.95.31-.4.43-.84.32-1.17-.2-.49-2.1-1.86-4.07-2.94-.43-.24-.59-.78-.35-1.21.24-.43.77-.59,1.21-.35,1.32.72,4.43,2.54,4.9,3.93.31.9.08,1.96-.6,2.84-.87,1.12-2.31,1.74-3.75,1.63Z"/>
            <path class="cls-16" d="M561.04,1007.82c-.38-.03-.75-.22-.99-.56-.43-.6-.28-1.44.32-1.86,4.05-2.87,9.6-2.79,9.84-2.79.75.02,1.32.62,1.31,1.36-.02.74-.62,1.32-1.36,1.31h0s-4.91-.06-8.24,2.3c-.26.19-.58.27-.87.24Z"/>
            <path class="cls-16" d="M610.04,1003.55c-.2-.02-.4-.08-.59-.19-3.51-2.12-8.34-1.7-8.38-1.69-.74.07-1.39-.47-1.45-1.2-.07-.73.47-1.38,1.2-1.45.23-.02,5.76-.5,10.01,2.07.63.38.83,1.2.45,1.83-.27.45-.76.68-1.25.64Z"/>
            <path class="cls-8" d="M601.75,1025.56s-14.86,5.16-26.81,3.75c0,0,5.63,7.83,15.47,6.51,9.83-1.32,11.34-10.26,11.34-10.26Z"/>
            <path class="cls-4" d="M545.88,1019.51c1.03.36,9.14-12.11,14.88-25.36,5.74-13.24,19.8-18.99,19.8-18.99,0,0,26.95,6.53,30.49,12.16,3.54,5.64,5.96,16.77,5.96,16.77,0,0,0-17.67-9.02-27.96-9.02-10.29-23.64-18.47-47.79-9.8-24.15,8.68-27.46,48.55-14.33,53.18Z"/>
            <path class="cls-5" d="M549.26,1017.28c-.63-1.36-1.76-2.42-3.13-3.03-2.83-1.25-7.83-2.67-11.42.69-5.26,4.93,4.55,18.76,14.89,12.38,0,0,2.99-2.8-.34-10.04Z"/>
          </g>
        </g>
        <polygon class="cls-8" points="513.14 1299.83 645.11 1292.84 630.43 1162.79 611.48 1114.73 546.56 1114.73 525.53 1162.79 513.14 1299.83"/>
        <path class="cls-8" d="M555.89,1117.26v-52.17s-9.06,1.68-14.04,3.97l2.96,51.7,11.08-3.5Z"/>
        <polygon class="cls-8" points="612.1 1116.29 613.55 1073.38 599.96 1068.66 601.47 1120.76 612.1 1116.29"/>
        <path class="cls-2" d="M553.59,1118.97c0-1.51-1.23-2.74-2.74-2.74s-2.74,1.23-2.74,2.74,1.23,2.74,2.74,2.74,2.74-1.23,2.74-2.74Z"/>
        <path class="cls-2" d="M609.49,1118.97c0-1.51-1.23-2.74-2.74-2.74s-2.74,1.23-2.74,2.74,1.23,2.74,2.74,2.74,2.74-1.23,2.74-2.74Z"/>
        <polygon class="cls-15" points="550.85 1139.84 604.02 1139.84 604.02 1191.42 577.43 1204.61 550.85 1191.42 550.85 1139.84"/>
      </g>
      <g>
        <g>
          <path class="cls-8" d="M1442.88,1402.3l-20.36-17.01,11.95-11.37,23.33,20.01s-9.3,9.4-14.92,8.37Z"/>
          <path class="cls-2" d="M1455.87,1392.47s-3.7,5.79-13,9.83c0,0-17.4,25.35-12.04,32.08,0,0,.29,2.83,10.96-4.59,10.67-7.43,27.41-18.74,27.71-19.28.3-.54,2.67-6.02-13.63-18.03Z"/>
          <path class="cls-8" d="M1469.5,1410.5c-.3.54-17.03,11.85-27.71,19.28-10.67,7.43-10.96,4.59-10.96,4.59-.35-.44-.6-.97-.77-1.57l38.29-28.06c2.11,3.62,1.31,5.45,1.15,5.75Z"/>
        </g>
        <g>
          <path class="cls-8" d="M1601.56,1268.72l-23.14,12.98-6.38-15.22,27-14.69s5.47,12.04,2.52,16.92Z"/>
          <path class="cls-11" d="M1597,1253.08s4.09,5.52,4.57,15.64c0,0,17.51,25.28,25.7,22.66,0,0,2.75.74-.4-11.88-3.15-12.62-7.77-32.28-8.17-32.75-.4-.47-4.68-4.64-21.7,6.32Z"/>
          <path class="cls-8" d="M1618.7,1246.76c.4.47,5.02,20.13,8.17,32.75,3.15,12.62.4,11.88.4,11.88-.54.17-1.12.22-1.74.16l-12.61-45.76c4.13-.68,5.56.71,5.79.97Z"/>
        </g>
        <path class="cls-11" d="M1396.02,1170.32s-58.04,101.84-41.67,127.81c16.37,25.98,69.98,106.28,69.98,106.28l33.51-24.65s-53.5-96.7-46.18-106.94c7.32-10.24,58.12-97.27,58.12-97.27l-73.77-5.24Z"/>
        <path class="cls-11" d="M1427.33,1190.67s32.08,115.15,62.49,121.82c30.41,6.66,108.61-28.29,108.61-28.29l-10.67-33.77s-81.12,16.09-83.3,3.43c-2.17-12.66-20.78-113.17-20.78-113.17l-56.36,49.98Z"/>
        <g>
          <path class="cls-5" d="M1379.25,1034.96s-1.91,51.37-29.71,65.39c-27.8,14.02-45.73,12.29-45.73,12.29l3.2,14.59s65.26-5.4,79.23-33.78c13.97-28.38,14.62-41.7,14.62-41.7l-21.62-16.78Z"/>
          <path class="cls-5" d="M1308.08,1113.53s-12.98-2.14-17.35-1.58c-4.37.56-10.44-.74-10.98,1.76-.55,2.5,9.02,3.42,9.02,3.42,0,0-7.39,5.06-9.9,6.27-2.51,1.21-5.32,3.04-4.58,4.95.74,1.91,11.27-3.28,11.27-3.28,0,0-9.25,6.57-8.94,8.47.31,1.9,13.31-4.72,13.31-4.72,0,0-10.21,6.52-10.57,7.74-.35,1.21,1.18,1.71,5.36.28,4.18-1.43,8.07-3.97,8.07-3.97,0,0-6.83,5.12-7.44,6.02-.6.9-.78,2.58,5.18-.19,5.96-2.78,11.15-8.46,20.28-12l-2.73-13.16Z"/>
        </g>
        <path class="cls-3" d="M1380.7,961.34s-3.06-3.38-4.79-1.56c-4.43,4.65,1.34,8.91,4.85,9.52l-.06-7.96Z"/>
        <path class="cls-5" d="M1377.5,947.66h.03c-.07-.39-.15-.78-.21-1.18-2.6-17.27,9.6-33.36,27.1-35.38,16.13-1.87,31.17,9.32,34.02,25.31.85,4.74.56,9.4-.64,13.72-4,17.28-6.24,29.12-13.91,35.63-1.39,1.18-2.02,3.03-1.75,4.84l1.17,7.74c.51,3.37,2.61,6.28,5.64,7.83h0c-15.86,9.04-24.02,3.63-24.02,3.63h0c2.24-2.52,3.25-5.91,2.75-9.25l-.64-4.22c-.4-2.63-2.65-4.57-5.31-4.58h-.05c-29.8-.09-22.6-33.58-24.18-44.09Z"/>
        <path class="cls-2" d="M1410.65,959.96c-.23-1.54.83-2.98,2.37-3.21s2.98.83,3.21,2.37c.23,1.54-.83,2.98-2.37,3.21-1.54.23-2.98-.83-3.21-2.37Z"/>
        <path class="cls-2" d="M1383.43,959.46c-.23-1.54.83-2.98,2.37-3.21,1.54-.23,2.98.83,3.21,2.37.23,1.54-.83,2.98-2.37,3.21-1.54.23-2.98-.83-3.21-2.37Z"/>
        <path class="cls-11" d="M1430.85,961.74s-12.38-18.46-13.02-29.19l19.12-4.61s7.22,15.6-1.19,31.04l-4.91,2.76Z"/>
        <path class="cls-3" d="M1399.43,971.75c1-.15,1.72-.61,1.76-.64.29-.19.37-.58.18-.86-.19-.29-.57-.37-.86-.18h0s-1.16.73-2.39.4c-.86-.23-1.6-.93-2.19-2.08-.13-.25-.15-.28.59-.9,1.29-1.08,3.69-3.09,3.55-9.68,0-.34-.29-.62-.64-.61-.36,0-.62.29-.61.64.13,5.99-1.89,7.68-3.1,8.7-.7.59-1.5,1.26-.9,2.43.76,1.48,1.77,2.39,2.99,2.71.58.15,1.13.15,1.62.08Z"/>
        <path class="cls-2" d="M1392.09,950.97c.33-.05.63-.28.75-.62.17-.49-.08-1.02-.57-1.19-.18-.06-4.4-1.51-9.38.74-.47.21-.68.77-.47,1.24.21.47.77.68,1.24.47,4.27-1.92,7.95-.69,7.99-.68.15.05.3.06.45.04Z"/>
        <path class="cls-2" d="M1419.35,953.67c.26-.04.5-.19.65-.43.28-.44.15-1.02-.29-1.29-4.62-2.91-9-2.07-9.19-2.03-.51.1-.83.6-.73,1.1.1.51.61.83,1.1.73.06,0,3.87-.71,7.82,1.78.2.12.42.17.64.13Z"/>
        <path class="cls-5" d="M1429.75,960.12c.35-1.06,1.1-1.95,2.06-2.52,1.99-1.17,5.58-2.66,8.53-.49,4.33,3.2-1.74,14.31-9.96,10.48,0,0-2.46-1.82-.62-7.47Z"/>
        <path class="cls-11" d="M1438.04,924.01c1.59-3.06,2.08-6.66,1.38-10.04-1.76-.45-3.6.77-4.48,2.36-.87,1.59-1.01,3.47-1.12,5.29-.7-4.5-5-7.11-8.69-9.03-4.49-2.33-9.29-4.55-14.42-4.78-7.08-.32-14.17,1.79-21.06,3.19-5.18.78-10.33,2.23-15.46,3.09-.99.22-1.99.44-2.98.65-1.47.35-4.53.1-4.16,2.36.4,2.47,2.27,4.51,4.46,5.74,2.1,1.18,4.48,1.72,6.81,2.23-1.29.03-2.54.4-3.76.91-1.53.63-3.04,1.39-4.5,2.18-.8.44-1.57,1.06-1.84,1.94-.15.47-.13.98-.03,1.46.95,4.43,6.59,6.79,10.49,7.56,12.63,2.5,25.4-2.57,38.19-4.01,5.74-.65,12.74.08,18.09-2.35,1.8-.82,5.9-4.36,7.09-7.05.39-.87-.34-1.84-1.29-1.75-.91.09-1.81.13-2.73.05Z"/>
        <path class="cls-2" d="M1380.6,939.44s-2.44,5.56-2.84,12.2c0,0-2.83-10.71-1.19-14.46,1.65-3.76,4.03,2.26,4.03,2.26Z"/>
        <path class="cls-8" d="M1407.14,976.76l-18.1-.92s.4,7.74,7.59,9.03c7.19,1.29,10.51-8.11,10.51-8.11Z"/>
        <g>
          <path class="cls-5" d="M1457.91,1035.54s51.31,3.11,64.68,31.23c13.36,28.12,11.21,46,11.21,46l14.66-2.85s-3.87-65.36-31.92-80c-28.05-14.63-41.35-15.59-41.35-15.59l-17.28,21.22Z"/>
          <path class="cls-5" d="M1534.8,1108.53s-2.45,12.93-1.99,17.31c.46,4.38-.98,10.42,1.5,11.02,2.48.6,3.63-8.94,3.63-8.94,0,0,4.89,7.51,6.04,10.05s2.92,5.39,4.84,4.69c1.92-.7-3.02-11.34-3.02-11.34,0,0,6.35,9.41,8.26,9.14,1.91-.26-4.41-13.42-4.41-13.42,0,0,6.28,10.36,7.49,10.75,1.2.38,1.74-1.14.41-5.35-1.33-4.21-3.78-8.16-3.78-8.16,0,0,4.96,6.95,5.85,7.58.89.63,2.56.84-.07-5.18-2.64-6.03-8.2-11.35-11.53-20.55l-13.22,2.42Z"/>
        </g>
        <path class="cls-4" d="M1405.43,1009.19s-12.37,2.22-19.38,9.18c-12.25,12.16-27.41,48.06-27.41,48.06,0,0,19.95,18.82,33.52,24.71,0,0-2.51,76.06-9.29,98.64,0,0,7.22,11.45,33.34,7.9,26.12-3.55,57.56-12.61,62.57-11.02,5.01,1.6,14.55,2.51,14.55,2.51,0,0-5.44-67.14-9.84-101.49-4.4-34.35-5.44-33.54-5.44-33.54l22.99,5.68,2.13-39.64c-40.06-22.51-75.66-14.33-75.66-14.33l-22.09,3.34Z"/>
      </g>
      <g>
        <path class="cls-5" d="M1667.1,1059.42s-28.9,79.93-59.51,94.38l5.85,12.22s62.89-25.12,72.77-79.08l-19.11-27.52Z"/>
        <g>
          <path class="cls-8" d="M1701.72,1426.11l-6.43-31.01,19.62-1.78,6.98,36.02s-15.67,1.89-20.17-3.23Z"/>
          <path class="cls-2" d="M1721.16,1426.55s-7.75,2.67-19.44-.44c0,0-35.07,10.82-35.05,21.08,0,0-1.83,2.86,13.66,3.83,15.49.97,39.53,2.8,40.21,2.51.68-.29,6.97-3.65.62-26.97Z"/>
          <path class="cls-8" d="M1720.54,1453.53c-.68.29-24.72-1.54-40.21-2.51-15.49-.97-13.66-3.83-13.66-3.83,0-.68.16-1.36.44-2.04l56.62,2.14c-.71,4.95-2.81,6.07-3.19,6.23Z"/>
        </g>
        <g>
          <path class="cls-8" d="M1888.14,1380.41l-26.81-16.87,12.32-15.37,30.8,19.94s-9.5,12.6-16.31,12.29Z"/>
          <path class="cls-2" d="M1901.94,1366.7s-3.45,7.43-13.8,13.71c0,0-16.53,32.77-9.12,39.87,0,0,.79,3.31,12.23-7.19,11.44-10.49,29.43-26.55,29.69-27.24.26-.69,2.2-7.55-19-19.15Z"/>
          <path class="cls-8" d="M1920.94,1385.85c-.26.69-18.25,16.74-29.69,27.24-11.44,10.49-12.23,7.19-12.23,7.19-.49-.47-.87-1.06-1.16-1.73l40.8-39.31c3.07,3.94,2.42,6.24,2.28,6.62Z"/>
        </g>
        <path class="cls-4" d="M1654.53,974.6c-1.93-6.73-3.88-13.61-3.52-20.6,1.37-26.73,38.72-42.39,60.78-31.92,9.52,4.52,18.58,12.59,24.02,21.63,6.52,10.84,6.97,25.82-1.1,35.56-5.69,6.86-14.62,10.28-23.45,11.52-8.83,1.24-17.8.58-26.71.8-4.25.1-8.56.41-12.72-.5-3.08-.67-8.68-.96-11.2-2.86-3.61-2.71-4.95-9.58-6.11-13.64Z"/>
        <path class="cls-12" d="M1720.69,1269.45c.85,4.25,92.69,92.69,162.41,110.54l10.2-20.41s-111.39-107.14-111.39-153.06l-61.22,62.92Z"/>
        <path class="cls-4" d="M1786.16,1153.8s10.2,30.61,5.1,53.57c-5.1,22.96-49.32,109.69-53.57,133.5-4.25,23.81-11.91,77.38-11.91,77.38h-34.01s-24.66-114.79-11.05-178.57l8.5-44.22-4.25-34.01,101.19-7.65Z"/>
        <path class="cls-8" d="M1777.66,1093l15.03,68.24s-54.47,22.96-116.07,8.29v-76.53l-25.24-8.42s14.77-38.77,25.24-45.79c10.47-7.01,45.98-26.43,77.87-16.87,31.89,9.57,56.33,48.75,56.33,48.75,0,0-13.82,22.84-27.21,28.26l-5.95-5.94Z"/>
        <path class="cls-5" d="M1786.43,1097.55s30.35,29.89,43.95,70.71l15.73-2.55s-14.56-63.3-38.13-90.68c0,0-12.37,17.72-21.56,22.53Z"/>
        <path class="cls-3" d="M1655.52,974.95s-3.64-3.04-5.16-.91c-3.89,5.44,2.67,8.99,6.38,9.11l-1.21-8.2Z"/>
        <path class="cls-5" d="M1656.34,977.65c-7.54-21.68,2.65-44.92,22.76-51.91,20.1-6.99,42.51,4.93,50.04,26.61,7.54,21.68-2.65,44.93-22.75,51.91-20.1,6.99-42.51-4.93-50.05-26.61Z"/>
        <path class="cls-5" d="M1726.14,992.84c-2.53,4.97-2,10.95,1.13,15.57h0c2.98,4.81,11.43,11.44,11.43,11.44,2.13,6.86-24.76,21.34-38.53,6.92,2.3-1.06,6.39-3.41,4.57-8.13h0c-2.93-4.11-7.67-6.53-12.72-6.54-4.21,0-8.61-.51-13.12-1.5-26.82-5.88-24.56-41.12-24.56-41.12,0,0,78.7-22.69,76.73,4.31-.55,7.5-2.27,13.83-4.93,19.06Z"/>
        <path class="cls-2" d="M1701.22,972.33c-.63-2.11.58-4.34,2.69-4.97,2.11-.63,4.34.58,4.96,2.69.63,2.11-.58,4.34-2.69,4.97-2.11.63-4.34-.58-4.97-2.69Z"/>
        <path class="cls-2" d="M1663.39,977.84c-.63-2.11.58-4.34,2.69-4.96,2.11-.63,4.34.57,4.97,2.69.63,2.11-.58,4.34-2.69,4.96-2.11.63-4.34-.58-4.97-2.69Z"/>
        <path class="cls-3" d="M1685.99,985.92c.47-.17.72-.68.56-1.15-.17-.47-.68-.72-1.15-.56-.98.34-1.9.04-2.42-.37-.41-.32-.65-.72-.62-1.07.07-.53,1.59-2.38,3.25-3.95.36-.34.38-.92.04-1.28-.34-.36-.92-.38-1.28-.04-1.11,1.05-3.71,3.65-3.82,5.14-.07.97.43,1.95,1.33,2.64,1.15.88,2.72,1.12,4.12.64Z"/>
        <path class="cls-16" d="M1710.49,963.56c.37-.13.68-.41.83-.81.26-.7-.09-1.49-.79-1.75-4.74-1.78-10.19-.27-10.41-.21-.73.21-1.14.96-.94,1.68.21.72.96,1.14,1.68.94h0s4.83-1.33,8.71.13c.31.12.64.11.92.01Z"/>
        <path class="cls-16" d="M1661.09,972.02c.19-.07.38-.18.53-.34,2.91-3,7.78-3.83,7.82-3.83.75-.12,1.24-.82,1.12-1.56-.12-.74-.82-1.24-1.56-1.12-.24.04-5.81.99-9.33,4.62-.52.54-.51,1.4.03,1.92.38.37.92.47,1.39.31Z"/>
        <path class="cls-8" d="M1674.96,991.57s15.98,1.24,27.38-3.24c0,0-3.53,9.17-13.56,10.42-10.03,1.24-13.82-7.18-13.82-7.18Z"/>
        <path class="cls-4" d="M1728.45,971.16c-.92.62-12.14-9.57-21.22-21.14-9.08-11.57-24.42-13.6-24.42-13.6,0,0-24.88,13.4-26.91,19.87-2.04,6.47-1.54,18.07-1.54,18.07,0,0-4.57-17.42,1.66-29.89,6.23-12.47,18.52-24.32,44.57-22.01,26.04,2.31,39.61,40.75,27.86,48.7Z"/>
        <path class="cls-5" d="M1724.54,969.84c.27-1.5,1.11-2.84,2.3-3.79,2.46-1.96,7.03-4.66,11.43-2.28,6.46,3.5.37,19.66-11.48,16.05,0,0-3.67-1.99-2.26-9.98Z"/>
        <path class="cls-4" d="M1725.86,912.92c8.27-3.58,17.48,2.73,26.49,2.58,11.56-.19,20.19-10.64,31.08-14.52,4.37-1.55,9.07-2.02,13.7-1.83,4.21.18,8.48.92,12.2,2.9,6.93,3.69,11.19,11.67,10.8,19.51-.39,7.83-5.22,15.21-12.05,19.06-6.83,3.86-15.42,4.23-22.73,1.39-5.17-2.01-9.88-5.55-15.4-6.04-5.66-.5-11.06,2.32-15.81,5.43-2.01,1.31-4.35,2.76-6.64,2.05-2.23-.69-3.35-3.1-4.41-5.18-2.01-3.98-4.94-7.83-9.15-9.31-4.16-1.46-9.3.27-11,4.47-1.72-3.48-4.5-6.28-4.26-10.33.26-4.25,3.3-8.52,7.18-10.2Z"/>
        <path class="cls-5" d="M1831.18,1164.48s-4.26,13.67-4.7,18.95c-.44,5.28-4.79,10.07-2,11.34,2.8,1.27,7.6-7.72,7.6-7.72,0,0,4.09,9.98,4.88,13.23.79,3.26,3.69,8.72,6.11,8.33,2.43-.39-2.46-15.77-2.46-15.77,0,0,5.39,12.54,7.71,12.66,2.32.12-2.2-16.85-2.2-16.85,0,0,5.1,13.66,6.43,14.38,1.33.72,2.31-.96,1.68-6.23-.63-5.28-2.63-10.5-2.63-10.5,0,0,4.3,9.33,5.21,10.27.91.94,2.84,1.57,1.08-6.14-1.76-7.71-8.29-23.77-14.8-30.47l-11.91,4.53Z"/>
        <path class="cls-5" d="M1610.98,1153.53s-12.36-1.87-16.98-1.55c-4.62.32-9.32-2.81-10.05-.22-.73,2.58,7.67,5.53,7.67,5.53,0,0-8.07,4.85-10.78,5.96-2.71,1.11-7.04,4.33-6.38,6.38.66,2.04,13.28-4.21,13.28-4.21,0,0-10.11,6.31-9.91,8.33.21,2.02,14.25-4.12,14.25-4.12,0,0-11.12,6.2-11.56,7.45-.45,1.25,1.13,1.87,5.6.63,4.47-1.24,8.71-3.66,8.71-3.66,0,0-7.48,4.94-8.17,5.85-.69.91-.98,2.66,5.44.12,6.42-2.54,19.42-10.29,24.34-16.8l-5.48-9.67Z"/>
      </g>
    </g>
  </g>
</svg>