<?xml version="1.0" encoding="UTF-8"?>
<svg id="_Слой_2" data-name="Слой 2" xmlns="http://www.w3.org/2000/svg" viewBox="0 0 1227.59 468.09">
  <defs>
    <style>
      .cls-1 {
        fill: #170c58;
      }

      .cls-2 {
        fill: #dddaf5;
      }
    </style>
  </defs>
  <g id="_Слой_1-2" data-name="Слой 1">
    <g>
      <path class="cls-1" d="M303.8,31.72c4.79-5.96,9.65-11.88,14.35-17.92,2.96-3.8,5.78-8.09,9.15-11.52.87-.89,1.88-1.56,2.93-2.21.31-.03.63-.06.94-.06,1.85-.04,3.43.72,4.72,2.03,15.99,16.24-4.07,34.7-4.17,52.27l.1.2c1.03,1.97,1.94,3.43,4.11,4.23,3.03,1.12,6.5.18,9.33-1.09,4.63-2.09,9.12-6.06,10.84-10.92.53-1.51,1.14-4.46.3-5.95-.47-.83,0,.3-.42-.84.11.02.23.03.34.07,2.21.77,5.78,6.3,6.73,8.48.43.99.56,2.17.5,3.24-.06,1.21-.39,2.59-1.13,3.57-2.28,3.02-6.35,5.76-9.09,8.46-11.16,11.01-18.8,23.53-20.37,39.39-1.46,14.81,1.4,28.22,4.59,42.52,1.58,7.08,3.27,14.14,4.3,21.33,3.33,23.34.35,46.51-8.08,68.48,1.11-20.12-3.44-38.42-12.12-56.46-17.78-32.36-42.35-53.8-76.7-67.37.79-.1,1.57-.23,2.35-.39,7.48-1.58,14.53-6.98,18.6-13.33-4.55,1.29-9.24,1.99-13.97,2.09-15.05.33-28.24-5.81-38.99-16.03,10.03-3.77,29.86-9.54,37.83-15.29,4.36-3.14,6.96-7.7,9.9-12.09,5.61-8.38,12.71-18.1,21.85-22.8,6.46-3.32,14.31-4.27,21.28-2.08ZM297.49,36.36c-4.5.83-8,2.62-10.62,6.52-1.69,2.52-3.48,6.87-2.83,9.95.1.48.18.55.39.92.66-.07.6-.16,1.05-.6,1.73-2.11,14.05-15.79,14.36-16.62-.83-.17-1.51-.22-2.35-.18Z"/>
      <path class="cls-2" d="M57.75,394.79C23.04,357.83,2.67,309.69.3,259.05c-2.88-58.71,15.25-115.78,55.07-159.62C95.11,55.67,147.81,31.08,206.78,28.27c16.97-.68,33.06,1.35,49.62,4.8-5.97,6.36-10.73,13.07-15.33,20.47-2.19,3.53-4.21,7.26-6.61,10.65-1.66,2.35-3.69,4.35-6.17,5.84-7.81,4.67-26.22,8.56-35.69,10.2,3.79,10.72,10.4,18.91,18.49,26.7,1.09,9.59,1.12,19.66.29,29.28-.81,9.36-3.29,18.38-6.6,27.14-8.63,22.79-24.57,40.94-42.99,56.49-7.6,6.42-15.56,12.41-23.17,18.82-48.4,40.76-75.19,79.89-80.74,143.98-.08,4.06-.13,8.11-.13,12.17Z"/>
      <path class="cls-2" d="M282.11,456.51c-1.31-9.26-1.55-18.84-1.53-28.18.09-42.2,10.34-84.77,33.03-120.66,5.73-9.07,12.59-17.27,18.73-26.04,15.37-21.96,24.61-44.94,28.05-71.55,2.47-19.1,1.75-39.72-2.14-58.58-2.28-11.06-5.67-21.95-6.56-33.25-1.06-13.51.27-24.68,9.26-35.18,2.14.77,4.63,3.72,6.28,5.35,12.14,11.99,22.79,25.4,31.73,39.94,31.26,50.15,41.2,110.71,27.61,168.22-13.99,59.97-50.77,108.34-102.77,140.66-13.03,7.8-27.29,14.45-41.69,19.29Z"/>
      <path class="cls-1" d="M213.68,187.5c12.95-23.79,16.36-43.49,16.19-70.39,16.01,4.89,30.7,11.57,44.36,21.32,23.36,16.68,43.88,44.19,48.58,72.9,4.87,29.73-5.21,58.24-22.4,82.17-1.81,2.73-3.66,5.45-5.53,8.14-6.39-19.3-18.47-40.36-33.44-54.29-8.79-8.18-18.2-15.18-25.8-24.6-8.71-10.81-13.79-24.09-21.95-35.24Z"/>
      <path class="cls-1" d="M94.48,317.54c11.78-22.21,26.49-39.85,45.48-56.28,24.32-21.03,47.41-35.22,66.09-62.7.58.27.97.78,1.32,1.3,4.01,5.96,6.81,12.91,9.49,19.55,11.91,29.51,16.82,62.95,10.65,94.4-7.03-9.23-17.49-16.79-28.24-21.01-23.67-9.31-50-6.59-72.92,3.51-11.71,5.39-22.66,12.15-31.88,21.23Z"/>
      <path class="cls-1" d="M244.55,467.14l.04-98.29c-.01-39.5,2.86-85.48-8.33-123.42.55.19.49.15.94.38,14.9,7.64,33.5,28.29,41.59,42.94,4.14,7.5,7.11,15.85,9.59,24.03-3.48,7.98-7.33,15.68-10.45,23.82-12.55,32.76-19.25,69.51-16.85,104.62.11,7.12,1.05,14.18,1.66,21.27-5.97,1.86-12.09,3.24-18.18,4.65Z"/>
      <path class="cls-1" d="M91.46,467.83c-7.31-11.8-12.45-32.44-13.77-46.17-2.82-29.28,4.94-58.73,23.94-81.51,14.95-17.93,36.09-30.65,59.55-32.84,2.57-.37,5.53-.24,8.13-.11,11.59.56,21.73,4.93,29.54,13.62,10.06,11.2,12.65,26.24,11.84,40.85-1.8,32.36-20.27,64.96-41.8,88.4-4.26,4.64-8.93,8.91-13.61,13.12,13.17-4.43,42.32-11.42,55.51-7.04,5.92,1.97,9.94,6.53,12.64,11.95l-21.53-.08-110.44-.18Z"/>
    </g>
    <g>
      <g>
        <path class="cls-1" d="M508.64,301.33h26.09c10.13,0,17.39,1.93,21.8,5.78s6.61,9.21,6.61,16.06c0,3.74-.85,7.11-2.55,10.1-1.7,3-4.33,5.43-7.88,7.3,4.41,1.79,7.63,4.36,9.68,7.71,2.05,3.35,3.07,7.28,3.07,11.8,0,7.4-2.2,13.08-6.61,17.05-4.41,3.97-11.67,5.96-21.8,5.96h-28.41v-81.77ZM519.54,311.38v24.76h15.19c6.26,0,10.67-1.07,13.22-3.21,2.55-2.14,3.83-5.2,3.83-9.17s-1.28-7.03-3.83-9.17c-2.55-2.14-6.96-3.21-13.22-3.21h-15.19ZM519.54,345.95v27.1h17.51c6.26,0,10.67-1.13,13.22-3.39,2.55-2.26,3.83-5.65,3.83-10.16s-1.27-7.9-3.83-10.16c-2.55-2.26-6.96-3.39-13.22-3.39h-17.51Z"/>
        <path class="cls-1" d="M609.52,301.33h26.09c10.13,0,17.39,1.93,21.8,5.78s6.61,9.21,6.61,16.06c0,3.74-.85,7.11-2.55,10.1-1.7,3-4.33,5.43-7.88,7.3,4.41,1.79,7.63,4.36,9.68,7.71,2.05,3.35,3.07,7.28,3.07,11.8,0,7.4-2.2,13.08-6.61,17.05-4.41,3.97-11.67,5.96-21.8,5.96h-28.41v-81.77ZM620.42,311.38v24.76h15.19c6.26,0,10.67-1.07,13.22-3.21,2.55-2.14,3.83-5.2,3.83-9.17s-1.28-7.03-3.83-9.17c-2.55-2.14-6.96-3.21-13.22-3.21h-15.19ZM620.42,345.95v27.1h17.51c6.26,0,10.67-1.13,13.22-3.39,2.55-2.26,3.83-5.65,3.83-10.16s-1.27-7.9-3.83-10.16c-2.55-2.26-6.96-3.39-13.22-3.39h-17.51Z"/>
        <path class="cls-1" d="M734.3,313.83l-6.03,12.03-32.01,57.24h-14.84v-81.77h10.9v69.27l6.03-12.03,32.01-57.24h14.84v81.77h-10.9v-69.27Z"/>
        <path class="cls-1" d="M756.21,373.52h2.32c1.78,0,3.42-.39,4.93-1.17,1.51-.78,2.8-2.3,3.88-4.56,1.08-2.26,1.91-5.37,2.49-9.34s.87-9.19.87-15.65v-41.47h53.34v81.77h-10.9v-71.72h-31.54v31.42c0,8.33-.5,15.15-1.51,20.44-1.01,5.3-2.48,9.5-4.41,12.62-1.93,3.12-4.33,5.26-7.19,6.42-2.86,1.17-6.19,1.75-9.97,1.75h-2.32v-10.51Z"/>
        <path class="cls-1" d="M842.6,301.33h10.9v29.44h15.77c10.2,0,17.78,2.32,22.73,6.95,4.95,4.63,7.42,11.08,7.42,19.33s-2.42,14.76-7.25,19.27c-4.83,4.52-12.47,6.78-22.9,6.78h-26.67v-81.77ZM853.5,340.82v32.24h16.35c6.57,0,11.27-1.32,14.09-3.97,2.82-2.65,4.23-6.66,4.23-12.03s-1.45-9.42-4.35-12.15c-2.9-2.72-7.56-4.09-13.97-4.09h-16.35Z"/>
        <path class="cls-1" d="M965.06,346.07h-41.98v37.03h-10.9v-81.77h10.9v34.69h41.98v-34.69h10.9v81.77h-10.9v-37.03Z"/>
        <path class="cls-1" d="M1051.1,384.03c-4.87,0-9.28-.8-13.22-2.39-3.94-1.6-7.34-3.97-10.2-7.13-2.86-3.15-5.1-7.1-6.73-11.86-1.62-4.75-2.48-10.28-2.55-16.59h-12.99v37.03h-10.9v-81.77h10.9v34.69h12.99c.15-5.68,1.04-10.75,2.67-15.19,1.62-4.44,3.86-8.18,6.73-11.21,2.86-3.04,6.26-5.33,10.2-6.89,3.94-1.56,8.31-2.34,13.1-2.34s9.31.82,13.34,2.45c4.02,1.64,7.46,4.03,10.32,7.18,2.86,3.15,5.08,7.05,6.67,11.68,1.58,4.63,2.38,9.95,2.38,15.94v6.78c0,6.54-.79,12.28-2.38,17.23-1.59,4.95-3.81,9.07-6.67,12.38-2.86,3.31-6.3,5.8-10.32,7.48-4.02,1.67-8.46,2.51-13.34,2.51ZM1051.1,373.52c3.09,0,5.95-.56,8.58-1.69,2.63-1.13,4.89-2.88,6.78-5.26,1.89-2.38,3.36-5.39,4.41-9.05,1.04-3.66,1.57-8.02,1.57-13.08v-6.78c0-4.44-.52-8.33-1.57-11.68-1.04-3.35-2.51-6.13-4.41-8.35-1.9-2.22-4.16-3.89-6.78-5.02-2.63-1.13-5.49-1.69-8.58-1.69-6.26,0-11.38,2.22-15.37,6.66-3.98,4.44-5.97,11.14-5.97,20.09v6.78c0,5.06.52,9.4,1.57,13.02,1.04,3.62,2.51,6.64,4.41,9.05,1.89,2.42,4.16,4.19,6.78,5.31,2.63,1.13,5.49,1.69,8.58,1.69Z"/>
        <path class="cls-1" d="M1130.77,384.03c-5.03,0-9.63-.88-13.8-2.63-4.17-1.75-7.77-4.26-10.78-7.53-3.02-3.27-5.37-7.28-7.07-12.03-1.7-4.75-2.55-10.16-2.55-16.24v-6.78c0-6,.85-11.37,2.55-16.12,1.7-4.75,4.06-8.78,7.07-12.09,3.02-3.31,6.61-5.84,10.78-7.59,4.17-1.75,8.77-2.63,13.8-2.63,4.48,0,8.54.68,12.18,2.04,3.63,1.36,6.82,3.19,9.57,5.49,2.74,2.3,4.97,4.95,6.67,7.94,1.7,3,2.86,6.13,3.48,9.4h-11.83c-.62-1.87-1.49-3.66-2.61-5.37-1.12-1.71-2.53-3.23-4.23-4.55-1.7-1.32-3.65-2.39-5.86-3.21-2.2-.82-4.66-1.23-7.36-1.23-3.25,0-6.28.6-9.1,1.81-2.82,1.21-5.24,3-7.25,5.37-2.01,2.38-3.59,5.3-4.75,8.76-1.16,3.47-1.74,7.46-1.74,11.97v6.78c0,4.52.58,8.51,1.74,11.97,1.16,3.47,2.76,6.39,4.81,8.76,2.05,2.38,4.46,4.17,7.25,5.37,2.78,1.21,5.8,1.81,9.05,1.81,5.41,0,9.82-1.56,13.22-4.67,3.4-3.11,5.68-7.12,6.84-12.03h11.83c-.62,3.82-1.78,7.38-3.48,10.69-1.7,3.31-3.92,6.19-6.67,8.64-2.75,2.45-5.95,4.38-9.63,5.78-3.67,1.4-7.71,2.1-12.12,2.1Z"/>
        <path class="cls-1" d="M1177.15,301.33h50.44v10.05h-39.54v24.65h32.59v10.04h-32.59v26.98h39.54v10.05h-50.44v-81.77Z"/>
      </g>
      <g>
        <path class="cls-1" d="M543.76,137.5l-11.2-26.72v151.43h-23.92V84.05h34.1l49.12,103.07,48.61-103.07h33.59v178.15h-23.92V110.52l-11.45,26.98-35.38,75.08h-23.92l-35.63-75.08Z"/>
        <path class="cls-1" d="M812.76,213.34h-72.28l-17.31,48.86h-24.94l64.9-178.15h28l64.9,178.15h-25.96l-17.31-48.86ZM748.37,191.45h56.5l-15.02-42.76-12.98-37.92-13.23,37.92-15.27,42.76Z"/>
        <path class="cls-1" d="M915.32,137.5l-11.2-26.72v151.43h-23.92V84.05h34.1l49.12,103.07,48.61-103.07h33.59v178.15h-23.92V110.52l-11.45,26.98-35.38,75.08h-23.92l-35.63-75.08Z"/>
        <path class="cls-1" d="M1184.33,213.34h-72.28l-17.31,48.86h-24.94l64.9-178.15h28l64.9,178.15h-25.96l-17.31-48.86ZM1119.94,191.45h56.5l-15.02-42.76-12.98-37.92-13.23,37.92-15.27,42.76Z"/>
      </g>
    </g>
  </g>
</svg>